<?xml version="1.0" encoding="UTF-8" standalone="no"?>
<!-- Created with Inkscape (http://www.inkscape.org/) -->

<svg
   xmlns:dc="http://purl.org/dc/elements/1.1/"
   xmlns:cc="http://creativecommons.org/ns#"
   xmlns:rdf="http://www.w3.org/1999/02/22-rdf-syntax-ns#"
   xmlns:svg="http://www.w3.org/2000/svg"
   xmlns="http://www.w3.org/2000/svg"
   version="1.1"
   width="439.15912"
   height="234.99995"
   id="svg2">
  <defs
     id="defs4">
    <linearGradient
       id="linearGradient8847">
      <stop
         id="stop8849"
         style="stop-color:#000000;stop-opacity:1"
         offset="0" />
      <stop
         id="stop8851"
         style="stop-color:#131313;stop-opacity:0.87155962"
         offset="1" />
    </linearGradient>
    <clipPath
       id="clipPath3038">
      <path
         d="M 0,800 800,800 800,0 0,0 0,800 z"
         id="path3040" />
    </clipPath>
    <radialGradient
       cx="0"
       cy="0"
       r="1"
       fx="0"
       fy="0"
       id="radialGradient3026"
       gradientUnits="userSpaceOnUse"
       gradientTransform="matrix(533.97406,0,0,-533.97406,400,400)"
       spreadMethod="pad">
      <stop
         id="stop3028"
         style="stop-color:#f7f7f8;stop-opacity:1"
         offset="0" />
      <stop
         id="stop3030"
         style="stop-color:#d9dade;stop-opacity:1"
         offset="1" />
    </radialGradient>
    <clipPath
       id="clipPath3018">
      <path
         d="M 0,0 800,0 800,800 0,800 0,0 z"
         id="path3020" />
    </clipPath>
    <clipPath
       id="clipPath4271">
      <path
         d="M 0,800 800,800 800,0 0,0 0,800 z"
         id="path4273" />
    </clipPath>
    <radialGradient
       cx="0"
       cy="0"
       r="1"
       fx="0"
       fy="0"
       id="radialGradient4259"
       gradientUnits="userSpaceOnUse"
       gradientTransform="matrix(513.93738,0,0,-513.93738,400,400)"
       spreadMethod="pad">
      <stop
         id="stop4261"
         style="stop-color:#f6f6f6;stop-opacity:1"
         offset="0" />
      <stop
         id="stop4263"
         style="stop-color:#dadada;stop-opacity:1"
         offset="1" />
    </radialGradient>
    <clipPath
       id="clipPath4251">
      <path
         d="M 0,0 800,0 800,800 0,800 0,0 z"
         id="path4253" />
    </clipPath>
  </defs>
  <metadata
     id="metadata7">
    <rdf:RDF>
      <cc:Work
         rdf:about="">
        <dc:format>image/svg+xml</dc:format>
        <dc:type
           rdf:resource="http://purl.org/dc/dcmitype/StillImage" />
        <dc:title></dc:title>
      </cc:Work>
    </rdf:RDF>
  </metadata>
  <g
     transform="translate(-113.47049,-275.59104)"
     id="layer1">
    <g
       transform="matrix(0.95901256,0,0,0.95901256,13.650864,16.111788)"
       id="g3907">
      <path
         d="m 244.34844,352.95019 c -24.85038,0 -45.06779,20.74798 -45.06779,46.24923 0,25.50254 20.21741,46.25051 45.06779,46.25051 24.85038,0 45.06779,-20.74797 45.06779,-46.25051 0,-25.50125 -20.21741,-46.24923 -45.06779,-46.24923 m 0,98.66571 c -28.16286,0 -51.07609,-23.51326 -51.07609,-52.41648 0,-28.90193 22.91323,-52.41648 51.07609,-52.41648 28.16286,0 51.07609,23.51455 51.07609,52.41648 0,28.90322 -22.91323,52.41648 -51.07609,52.41648"
         id="path8001"
         style="fill:#000000;fill-opacity:1;fill-rule:nonzero;stroke:none" />
      <path
         d="m 136.51702,418.25279 c -11.21307,0 -20.33576,9.36209 -20.33576,20.86943 0,11.50733 9.12269,20.86815 20.33576,20.86815 11.21307,0 20.33451,-9.36082 20.33451,-20.86815 0,-11.50734 -9.12144,-20.86943 -20.33451,-20.86943 m 0,44.52077 c -12.70798,0 -23.04653,-10.60987 -23.04653,-23.65134 0,-13.04148 10.33855,-23.65134 23.04653,-23.65134 12.70798,0 23.04653,10.60986 23.04653,23.65134 0,13.04147 -10.33855,23.65134 -23.04653,23.65134"
         id="path8005"
         style="fill:#000000;fill-opacity:1;fill-rule:nonzero;stroke:none" />
      <path
         d="m 304.68875,292.53529 c -11.21307,0 -20.33451,9.36209 -20.33451,20.86943 0,11.50606 9.12144,20.86815 20.33451,20.86815 11.21307,0 20.33576,-9.36209 20.33576,-20.86815 0,-11.50734 -9.12269,-20.86943 -20.33576,-20.86943 m 0,44.52077 c -12.70798,0 -23.04653,-10.61114 -23.04653,-23.65134 0,-13.04148 10.33855,-23.65134 23.04653,-23.65134 12.70798,0 23.04653,10.60986 23.04653,23.65134 0,13.0402 -10.33855,23.65134 -23.04653,23.65134"
         id="path8009"
         style="fill:#000000;fill-opacity:1;fill-rule:nonzero;stroke:none" />
      <path
         d="m 178.01784,476.70369 c -5.83887,0 -10.58894,4.87473 -10.58894,10.86683 0,5.9921 4.75007,10.86683 10.58894,10.86683 5.83887,0 10.58894,-4.87473 10.58894,-10.86683 0,-5.9921 -4.75007,-10.86683 -10.58894,-10.86683 m 0,25.56901 c -7.89935,0 -14.32622,-6.59552 -14.32622,-14.70218 0,-8.10665 6.42687,-14.70218 14.32622,-14.70218 7.89935,0 14.32622,6.59553 14.32622,14.70218 0,8.10666 -6.42687,14.70218 -14.32622,14.70218"
         id="path8013"
         style="fill:#000000;fill-opacity:1;fill-rule:nonzero;stroke:none" />
      <path
         d="m 216.60851,279.42639 c -5.83887,0 -10.58894,4.87473 -10.58894,10.86683 0,5.9921 4.75007,10.86683 10.58894,10.86683 5.83887,0 10.58894,-4.87473 10.58894,-10.86683 0,-5.9921 -4.75007,-10.86683 -10.58894,-10.86683 m 0,25.56901 c -7.89935,0 -14.32622,-6.59552 -14.32622,-14.70218 0,-8.10665 6.42687,-14.70218 14.32622,-14.70218 7.89935,0 14.32622,6.59553 14.32622,14.70218 0,8.10666 -6.42687,14.70218 -14.32622,14.70218"
         id="path8017"
         style="fill:#000000;fill-opacity:1;fill-rule:nonzero;stroke:none" />
      <path
         d="m 188.79676,480.83749 c -0.14849,0 -0.29786,-0.0503 -0.42183,-0.15376 -0.28671,-0.23932 -0.32997,-0.67176 -0.0963,-0.966 l 31.21336,-39.35421 c 0.23231,-0.29379 0.65459,-0.33772 0.94086,-0.0993 0.28671,0.23933 0.32997,0.67176 0.0963,0.96601 l -31.21336,39.3542 c -0.13198,0.16657 -0.32462,0.25306 -0.51903,0.25306"
         id="path8025"
         style="fill:#000000;fill-opacity:1;fill-rule:nonzero;stroke:none" />
      <path
         d="m 155.92072,427.73359 -0.43187,-1.23389 40.88697,-15.07936 0.43187,1.23389 -40.88697,15.07936 z"
         id="path8029"
         style="fill:#000000;fill-opacity:1;fill-rule:nonzero;stroke:none" />
      <path
         d="m 271.07627,355.94839 -0.86937,-0.80333 21.06143,-24.01571 0.86937,0.80332 -21.06143,24.01572 z"
         id="path8033"
         style="fill:#000000;fill-opacity:1;fill-rule:nonzero;stroke:none" />
      <path
         d="m 155.15911,354.29879 c 0,-5.6482 -4.46231,-10.22761 -9.96607,-10.22761 -5.50376,0 -9.96606,4.57941 -9.96606,10.22761 0,5.6482 4.4623,10.22761 9.96606,10.22761 5.50376,0 9.96607,-4.57941 9.96607,-10.22761"
         id="path8041"
         style="fill:#000000;fill-opacity:1;fill-rule:nonzero;stroke:none" />
      <path
         d="m 231.97393,349.11299 -14.53083,-43.80447 1.71918,-0.60114 14.53083,43.80446 -1.71918,0.60115 z"
         id="path8045"
         style="fill:#000000;fill-opacity:1;fill-rule:nonzero;stroke:none" />
      <path
         d="m 197.34785,384.99609 -46.30936,-25.10737 0.8161,-1.58624 46.30935,25.10736 -0.81609,1.58625 z"
         id="path8049"
         style="fill:#000000;fill-opacity:1;fill-rule:nonzero;stroke:none" />
      <text
         x="225.05717"
         y="418.20862"
         transform="scale(0.98713117,1.0130366)"
         id="text8855"
         xml:space="preserve"
         style="font-size:40.91549301px;font-style:normal;font-variant:normal;font-weight:bold;font-stretch:normal;line-height:125%;letter-spacing:0px;word-spacing:0px;fill:#000000;fill-opacity:1;stroke:none;font-family:Chunkfive;-inkscape-font-specification:Chunkfive"><tspan
           x="225.05717"
           y="418.20862"
           id="tspan8857"
           style="font-size:72px">E</tspan></text>
      <path
         d="m 266.17217,482.38859 -11.48025,-34.60824 1.35826,-0.47494 11.48025,34.60824 -1.35826,0.47494 z"
         id="path8971"
         style="fill:#000000;fill-opacity:1;fill-rule:nonzero;stroke:none" />
      <path
         d="m 270.97164,485.02199 c -5.83887,0 -10.58894,4.87473 -10.58894,10.86683 0,5.9921 4.75007,10.86683 10.58894,10.86683 5.83887,0 10.58894,-4.87473 10.58894,-10.86683 0,-5.9921 -4.75007,-10.86683 -10.58894,-10.86683 m 0,25.56901 c -7.89935,0 -14.32622,-6.59552 -14.32622,-14.70218 0,-8.10665 6.42687,-14.70218 14.32622,-14.70218 7.89935,0 14.32622,6.59553 14.32622,14.70218 0,8.10666 -6.42687,14.70218 -14.32622,14.70218"
         id="path8975"
         style="fill:#000000;fill-opacity:1;fill-rule:nonzero;stroke:none" />
      <text
         x="300.08737"
         y="415.63785"
         id="text3852"
         xml:space="preserve"
         style="font-size:72px;font-style:normal;font-variant:normal;font-weight:bold;font-stretch:normal;line-height:125%;letter-spacing:0px;word-spacing:0px;fill:#000000;fill-opacity:1;stroke:none;font-family:Chunkfive;-inkscape-font-specification:Chunkfive"><tspan
           x="300.08737"
           y="415.63785"
           id="tspan3854">store.js</tspan></text>
    </g>
  </g>
</svg>
